<?xml version="1.0" encoding="UTF-8" standalone="no"?>
<!-- Created with Inkscape (http://www.inkscape.org/) -->

<svg
   width="66.599998"
   height="100"
   viewBox="0 0 17.62125 26.458331"
   version="1.1"
   id="svg12"
   sodipodi:docname="f15.svg"
   inkscape:version="1.3.2 (091e20e, 2023-11-25, custom)"
   xmlns:inkscape="http://www.inkscape.org/namespaces/inkscape"
   xmlns:sodipodi="http://sodipodi.sourceforge.net/DTD/sodipodi-0.dtd"
   xmlns="http://www.w3.org/2000/svg"
   xmlns:svg="http://www.w3.org/2000/svg">
  <sodipodi:namedview
     id="namedview14"
     pagecolor="#505050"
     bordercolor="#eeeeee"
     borderopacity="1"
     inkscape:showpageshadow="true"
     inkscape:pageopacity="0"
     inkscape:pagecheckerboard="true"
     inkscape:deskcolor="#505050"
     inkscape:document-units="px"
     showgrid="false"
     inkscape:zoom="2.63"
     inkscape:cx="-7.9847908"
     inkscape:cy="29.847908"
     inkscape:window-width="1920"
     inkscape:window-height="1017"
     inkscape:window-x="-8"
     inkscape:window-y="-8"
     inkscape:window-maximized="1"
     inkscape:current-layer="layer3">
    <inkscape:page
       x="0"
       y="0"
       width="17.62125"
       height="26.45833"
       id="page2"
       margin="0"
       bleed="0" />
  </sodipodi:namedview>
  <defs
     id="defs9">
    <rect
       x="25.760456"
       y="35.171102"
       width="23.479087"
       height="21.387833"
       id="rect6" />
    <linearGradient
       id="linearGradient3009"
       inkscape:swatch="solid">
      <stop
         style="stop-color:#e1c79e;stop-opacity:1;"
         offset="0"
         id="stop3007" />
    </linearGradient>
  </defs>
  <g
     inkscape:label="Réteg 1"
     inkscape:groupmode="layer"
     id="layer1" />
  <g
     inkscape:groupmode="layer"
     id="layer3"
     inkscape:label="Réteg 3">
    <path
       id="path18-42"
       style="fill:#552200;stroke:#000000;stroke-width:0.540368;stroke-linecap:round;stroke-opacity:0;paint-order:markers stroke fill"
       d="m 12.418587,24.110747 c -0.580501,0.649378 -0.111695,1.80419 -0.789635,1.84742 -0.677927,0.04323 -1.280686,-0.755742 -1.346292,-1.784563 -0.06561,-1.028816 -0.156531,-1.762632 0.521402,-1.805865 0.677931,-0.04323 2.400562,0.863725 1.614524,1.743008 z"
       sodipodi:nodetypes="sssss" />
    <path
       id="path18-2"
       style="fill:#803300;stroke:#000000;stroke-width:0.540368;stroke-linecap:round;stroke-opacity:0;paint-order:markers stroke fill"
       d="m 9.5528512,24.356063 c 0.7564358,-0.431832 0.6779238,-1.675706 1.3345898,-1.501784 0.656665,0.173922 0.975027,1.122777 0.711082,2.119325 -0.263944,0.996547 -0.410354,1.721335 -1.067017,1.547414 -0.6566638,-0.173922 -2.0029013,-1.580223 -0.9786494,-2.16495 z"
       sodipodi:nodetypes="sssss" />
    <path
       id="path18-7"
       style="fill:#d38d5f;stroke:#000000;stroke-width:0.529167;stroke-linecap:round;stroke-opacity:0;paint-order:markers stroke fill"
       d="m 14.473433,26.470537 c -0.85252,0.05852 -1.426449,1.194466 -1.884428,0.758935 -0.457982,-0.435528 -0.235635,-1.412813 0.496633,-2.182822 0.732264,-0.77001 1.226866,-1.349558 1.684846,-0.914028 0.457981,0.435529 0.857305,2.258668 -0.297054,2.337915 z"
       sodipodi:nodetypes="sssss" />
    <path
       id="path18-4"
       style="fill:#803300;stroke:#000000;stroke-width:0.529167;stroke-linecap:round;stroke-opacity:0;paint-order:markers stroke fill"
       d="m 12.872414,27.087809 c -0.783895,-0.340176 -1.816017,0.404457 -2.022334,-0.192924 -0.206317,-0.597382 0.440648,-1.36286 1.445037,-1.709745 1.004389,-0.346884 1.710141,-0.633973 1.916459,-0.03659 0.206317,0.597382 -0.277725,2.399878 -1.339161,1.93926 z"
       sodipodi:nodetypes="sssss" />
    <path
       id="path18-25"
       style="fill:#784421;stroke:#000000;stroke-width:0.540368;stroke-linecap:round;stroke-opacity:0;paint-order:markers stroke fill"
       d="m 12.935691,23.053077 c 0.815799,0.305204 1.721683,-0.55081 2.008045,0.06518 0.286356,0.616001 -0.239329,1.467661 -1.174166,1.902241 -0.934834,0.434578 -1.585595,0.785665 -1.871959,0.169662 -0.286356,-0.616002 -0.06656,-2.550354 1.03808,-2.13709 z"
       sodipodi:nodetypes="sssss" />
  </g>
</svg>
