<?xml version="1.0" encoding="UTF-8" standalone="no"?>
<!-- Created with Inkscape (http://www.inkscape.org/) -->

<svg
   width="66.599998"
   height="100"
   viewBox="0 0 17.62125 26.458331"
   version="1.1"
   id="svg12"
   sodipodi:docname="f7.svg"
   inkscape:version="1.3.2 (091e20e, 2023-11-25, custom)"
   xmlns:inkscape="http://www.inkscape.org/namespaces/inkscape"
   xmlns:sodipodi="http://sodipodi.sourceforge.net/DTD/sodipodi-0.dtd"
   xmlns="http://www.w3.org/2000/svg"
   xmlns:svg="http://www.w3.org/2000/svg">
  <sodipodi:namedview
     id="namedview14"
     pagecolor="#505050"
     bordercolor="#eeeeee"
     borderopacity="1"
     inkscape:showpageshadow="true"
     inkscape:pageopacity="0"
     inkscape:pagecheckerboard="true"
     inkscape:deskcolor="#505050"
     inkscape:document-units="px"
     showgrid="false"
     inkscape:zoom="3.7193817"
     inkscape:cx="23.122123"
     inkscape:cy="69.231937"
     inkscape:window-width="1920"
     inkscape:window-height="1017"
     inkscape:window-x="-8"
     inkscape:window-y="-8"
     inkscape:window-maximized="1"
     inkscape:current-layer="layer3">
    <inkscape:page
       x="0"
       y="0"
       width="17.62125"
       height="26.45833"
       id="page2"
       margin="0"
       bleed="0" />
  </sodipodi:namedview>
  <defs
     id="defs9">
    <rect
       x="25.760456"
       y="35.171102"
       width="23.479087"
       height="21.387833"
       id="rect6" />
    <linearGradient
       id="linearGradient3009"
       inkscape:swatch="solid">
      <stop
         style="stop-color:#e1c79e;stop-opacity:1;"
         offset="0"
         id="stop3007" />
    </linearGradient>
  </defs>
  <g
     inkscape:label="Réteg 1"
     inkscape:groupmode="layer"
     id="layer1" />
  <g
     inkscape:groupmode="layer"
     id="layer3"
     inkscape:label="Réteg 3">
    <path
       id="path18"
       style="fill:#552200;stroke:#000000;stroke-width:0.540368;stroke-linecap:round;stroke-opacity:0;paint-order:markers stroke fill"
       d="m 11.049843,22.630406 c 0.734449,0.468254 1.798604,-0.180561 1.95054,0.481537 0.151934,0.662098 -0.539442,1.385753 -1.544235,1.616329 -1.004793,0.230575 -1.7143585,0.438588 -1.8662948,-0.223515 -0.1519356,-0.662098 0.4655058,-2.508391 1.4599898,-1.874351 z"
       sodipodi:nodetypes="sssss" />
    <path
       id="path18-25"
       style="fill:#784421;stroke:#000000;stroke-width:0.540368;stroke-linecap:round;stroke-opacity:0;paint-order:markers stroke fill"
       d="m 13.890037,16.417437 c 0.81002,0.320227 1.731565,-0.518905 2.006496,0.102281 0.274928,0.621186 -0.266409,1.462988 -1.209114,1.88022 -0.942705,0.41723 -1.599842,0.756232 -1.874774,0.135042 -0.27493,-0.621186 -0.01942,-2.551146 1.077392,-2.117543 z"
       sodipodi:nodetypes="sssss" />
    <path
       id="path18-2"
       style="fill:#803300;stroke:#000000;stroke-width:0.540368;stroke-linecap:round;stroke-opacity:0;paint-order:markers stroke fill"
       d="m 12.303447,19.8508 c -0.348761,0.798149 0.457157,1.748881 -0.173391,2.001605 -0.630548,0.252721 -1.452618,-0.318136 -1.836147,-1.275047 -0.3835284,-0.956912 -0.6990072,-1.625662 -0.06846,-1.878385 0.630547,-0.252723 2.550229,0.07109 2.077994,1.151827 z"
       sodipodi:nodetypes="sssss" />
    <path
       id="path18-7"
       style="fill:#d38d5f;stroke:#000000;stroke-width:0.529167;stroke-linecap:round;stroke-opacity:0;paint-order:markers stroke fill"
       d="m 15.190125,21.110796 c -0.833521,0.188298 -1.226856,1.398688 -1.746092,1.038374 -0.519236,-0.360313 -0.44906,-1.360113 0.156744,-2.233112 0.605802,-0.873 1.005889,-1.521412 1.525125,-1.161098 0.519236,0.360314 1.192855,2.100869 0.06422,2.355836 z"
       sodipodi:nodetypes="sssss" />
    <path
       id="path18-4"
       style="fill:#803300;stroke:#000000;stroke-width:0.529167;stroke-linecap:round;stroke-opacity:0;paint-order:markers stroke fill"
       d="m 15.339902,25.08654 c -0.853146,-0.04852 -1.564596,1.006749 -1.96453,0.517378 -0.399933,-0.489372 -0.05714,-1.431186 0.765649,-2.103602 0.82279,-0.672415 1.385969,-1.185578 1.785903,-0.696208 0.399934,0.489372 0.568183,2.34813 -0.587022,2.28243 z"
       sodipodi:nodetypes="sssss" />
    <g
       id="g18"
       transform="rotate(144.57401,9.2399352,11.99985)">
      <path
         id="rect5"
         style="fill:#d4a300;stroke:#ad6800;stroke-width:0.529167;stroke-linecap:round;paint-order:markers stroke fill"
         d="m 5.5834122,6.7403355 c 0.2444557,-0.331595 7.6092798,-0.2376784 7.8469578,0 0.224865,0.2248646 0.299521,10.4145945 0,10.7141155 -0.290214,0.290214 -7.581894,0.265064 -7.8469578,0 -0.3120967,-0.312097 -0.2355363,-10.3946193 0,-10.7141155 z"
         sodipodi:nodetypes="sssss" />
      <text
         xml:space="preserve"
         style="font-size:5.64444px;font-family:'Times New Roman';-inkscape-font-specification:'Times New Roman, ';fill:#000000;fill-opacity:1;fill-rule:nonzero;stroke:#000000;stroke-width:0.529167;stroke-linecap:round;stroke-dasharray:none;stroke-opacity:0;paint-order:markers stroke fill"
         x="6.6710067"
         y="9.4611368"
         id="text11"><tspan
           sodipodi:role="line"
           style="font-style:normal;font-variant:normal;font-weight:normal;font-stretch:normal;font-size:1.41111px;font-family:Arial;-inkscape-font-specification:'Arial, Normal';font-variant-ligatures:normal;font-variant-caps:normal;font-variant-numeric:normal;font-variant-east-asian:normal;fill:#000000;fill-opacity:1;stroke-width:0.529167;stroke-dasharray:none"
           x="6.6710067"
           y="9.4611368"
           id="tspan16">Prémium</tspan></text>
      <text
         xml:space="preserve"
         style="font-style:normal;font-variant:normal;font-weight:normal;font-stretch:normal;font-size:1.41111px;font-family:Arial;-inkscape-font-specification:'Arial, Normal';font-variant-ligatures:normal;font-variant-caps:normal;font-variant-numeric:normal;font-variant-east-asian:normal;fill:#000000;fill-opacity:1;fill-rule:nonzero;stroke:#000000;stroke-width:0.529167;stroke-linecap:round;stroke-dasharray:none;stroke-opacity:0;paint-order:markers stroke fill"
         x="7.0492778"
         y="11.310683"
         id="text17"><tspan
           sodipodi:role="line"
           id="tspan17"
           style="fill:#000000;fill-opacity:1;stroke-width:0.529167"
           x="7.0492778"
           y="11.310683">Macska</tspan></text>
      <text
         xml:space="preserve"
         style="font-style:normal;font-variant:normal;font-weight:normal;font-stretch:normal;font-size:1.41111px;font-family:Arial;-inkscape-font-specification:'Arial, Normal';font-variant-ligatures:normal;font-variant-caps:normal;font-variant-numeric:normal;font-variant-east-asian:normal;fill:#000000;fill-opacity:1;fill-rule:nonzero;stroke:#000000;stroke-width:0.529167;stroke-linecap:round;stroke-dasharray:none;stroke-opacity:0;paint-order:markers stroke fill"
         x="7.1336827"
         y="13.097806"
         id="text18"><tspan
           sodipodi:role="line"
           id="tspan18"
           style="stroke-width:0.529167"
           x="7.1336827"
           y="13.097806">Falatok</tspan></text>
    </g>
  </g>
</svg>
