<?xml version="1.0" encoding="UTF-8" standalone="no"?>
<!-- Created with Inkscape (http://www.inkscape.org/) -->

<svg
   width="66.599998"
   height="100"
   viewBox="0 0 17.62125 26.458331"
   version="1.1"
   id="svg12"
   sodipodi:docname="f8.svg"
   inkscape:version="1.3.2 (091e20e, 2023-11-25, custom)"
   xmlns:inkscape="http://www.inkscape.org/namespaces/inkscape"
   xmlns:sodipodi="http://sodipodi.sourceforge.net/DTD/sodipodi-0.dtd"
   xmlns="http://www.w3.org/2000/svg"
   xmlns:svg="http://www.w3.org/2000/svg">
  <sodipodi:namedview
     id="namedview14"
     pagecolor="#505050"
     bordercolor="#eeeeee"
     borderopacity="1"
     inkscape:showpageshadow="true"
     inkscape:pageopacity="0"
     inkscape:pagecheckerboard="true"
     inkscape:deskcolor="#505050"
     inkscape:document-units="px"
     showgrid="false"
     inkscape:zoom="7.4387634"
     inkscape:cx="24.332001"
     inkscape:cy="70.509031"
     inkscape:window-width="1920"
     inkscape:window-height="1017"
     inkscape:window-x="-8"
     inkscape:window-y="-8"
     inkscape:window-maximized="1"
     inkscape:current-layer="layer3">
    <inkscape:page
       x="0"
       y="0"
       width="17.62125"
       height="26.45833"
       id="page2"
       margin="0"
       bleed="0" />
  </sodipodi:namedview>
  <defs
     id="defs9">
    <rect
       x="25.760456"
       y="35.171102"
       width="23.479087"
       height="21.387833"
       id="rect6" />
    <linearGradient
       id="linearGradient3009"
       inkscape:swatch="solid">
      <stop
         style="stop-color:#e1c79e;stop-opacity:1;"
         offset="0"
         id="stop3007" />
    </linearGradient>
  </defs>
  <g
     inkscape:label="Réteg 1"
     inkscape:groupmode="layer"
     id="layer1" />
  <g
     inkscape:groupmode="layer"
     id="layer3"
     inkscape:label="Réteg 3">
    <path
       id="path18"
       style="fill:#552200;stroke:#000000;stroke-width:0.540368;stroke-linecap:round;stroke-opacity:0;paint-order:markers stroke fill"
       d="m 10.36021,25.416493 c 0.163893,-0.855462 -0.8320747,-1.604752 -0.272903,-1.990479 0.559173,-0.385725 1.48701,-0.0105 2.072385,0.838095 0.585373,0.848594 1.040743,1.431166 0.481567,1.816895 -0.559172,0.385727 -2.502968,0.493832 -2.281049,-0.664511 z"
       sodipodi:nodetypes="sssss" />
    <path
       id="path18-42"
       style="fill:#552200;stroke:#000000;stroke-width:0.540368;stroke-linecap:round;stroke-opacity:0;paint-order:markers stroke fill"
       d="m 10.830614,17.665038 c 0.849767,-0.191238 1.139166,-1.403524 1.716049,-1.044825 0.576881,0.3587 0.60325,1.35919 0.05889,2.234662 -0.544358,0.875469 -0.89671,1.525547 -1.473596,1.166845 -0.576883,-0.358698 -1.4519751,-2.097733 -0.301344,-2.356682 z"
       sodipodi:nodetypes="sssss" />
    <path
       id="path18-25"
       style="fill:#784421;stroke:#000000;stroke-width:0.540368;stroke-linecap:round;stroke-opacity:0;paint-order:markers stroke fill"
       d="m 14.51978,18.546055 c 0.547399,0.677519 1.762647,0.400821 1.696128,1.076864 -0.06652,0.676042 -0.952144,1.142248 -1.9781,1.0413 -1.025954,-0.10095 -1.764833,-0.129399 -1.698314,-0.805446 0.06652,-0.676043 1.239077,-2.230115 1.980286,-1.312718 z"
       sodipodi:nodetypes="sssss" />
    <path
       id="path18-2"
       style="fill:#803300;stroke:#000000;stroke-width:0.540368;stroke-linecap:round;stroke-opacity:0;paint-order:markers stroke fill"
       d="m 10.996137,20.135532 c 0.41583,0.76535 1.661083,0.713007 1.473392,1.365871 -0.187695,0.652863 -1.143032,0.951204 -2.133809,0.666364 C 9.3449425,21.882926 8.6233931,21.721309 8.8110852,21.068446 8.998777,20.415584 10.433073,19.099214 10.996134,20.135535 Z"
       sodipodi:nodetypes="sssss" />
    <path
       id="path18-7"
       style="fill:#d38d5f;stroke:#000000;stroke-width:0.529167;stroke-linecap:round;stroke-opacity:0;paint-order:markers stroke fill"
       d="m 14.043858,23.544273 c -0.756866,-0.396696 -1.840769,0.270321 -2.002765,-0.340571 -0.161997,-0.610892 0.539312,-1.326916 1.566416,-1.599281 1.027103,-0.272367 1.751993,-0.506978 1.913989,0.103914 0.161997,0.610892 -0.452802,2.373083 -1.477642,1.835936 z"
       sodipodi:nodetypes="sssss" />
    <path
       id="path18-4"
       style="fill:#803300;stroke:#000000;stroke-width:0.529167;stroke-linecap:round;stroke-opacity:0;paint-order:markers stroke fill"
       d="m 14.985057,26.303111 c -0.783895,-0.340176 -1.816017,0.404457 -2.022334,-0.192924 -0.206317,-0.597382 0.440648,-1.36286 1.445037,-1.709745 1.004389,-0.346884 1.710141,-0.633973 1.916459,-0.03659 0.206317,0.597382 -0.277725,2.399878 -1.339161,1.93926 z"
       sodipodi:nodetypes="sssss" />
    <g
       id="g18"
       transform="rotate(144.57401,8.7107686,11.83084)">
      <path
         id="rect5"
         style="fill:#d4a300;stroke:#ad6800;stroke-width:0.529167;stroke-linecap:round;paint-order:markers stroke fill"
         d="m 5.5834122,6.7403355 c 0.2444557,-0.331595 7.6092798,-0.2376784 7.8469578,0 0.224865,0.2248646 0.299521,10.4145945 0,10.7141155 -0.290214,0.290214 -7.581894,0.265064 -7.8469578,0 -0.3120967,-0.312097 -0.2355363,-10.3946193 0,-10.7141155 z"
         sodipodi:nodetypes="sssss" />
      <text
         xml:space="preserve"
         style="font-size:5.64444px;font-family:'Times New Roman';-inkscape-font-specification:'Times New Roman, ';fill:#000000;fill-opacity:1;fill-rule:nonzero;stroke:#000000;stroke-width:0.529167;stroke-linecap:round;stroke-dasharray:none;stroke-opacity:0;paint-order:markers stroke fill"
         x="6.6710067"
         y="9.4611368"
         id="text11"><tspan
           sodipodi:role="line"
           style="font-style:normal;font-variant:normal;font-weight:normal;font-stretch:normal;font-size:1.41111px;font-family:Arial;-inkscape-font-specification:'Arial, Normal';font-variant-ligatures:normal;font-variant-caps:normal;font-variant-numeric:normal;font-variant-east-asian:normal;fill:#000000;fill-opacity:1;stroke-width:0.529167;stroke-dasharray:none"
           x="6.6710067"
           y="9.4611368"
           id="tspan16">Prémium</tspan></text>
      <text
         xml:space="preserve"
         style="font-style:normal;font-variant:normal;font-weight:normal;font-stretch:normal;font-size:1.41111px;font-family:Arial;-inkscape-font-specification:'Arial, Normal';font-variant-ligatures:normal;font-variant-caps:normal;font-variant-numeric:normal;font-variant-east-asian:normal;fill:#000000;fill-opacity:1;fill-rule:nonzero;stroke:#000000;stroke-width:0.529167;stroke-linecap:round;stroke-dasharray:none;stroke-opacity:0;paint-order:markers stroke fill"
         x="7.0492778"
         y="11.310683"
         id="text17"><tspan
           sodipodi:role="line"
           id="tspan17"
           style="fill:#000000;fill-opacity:1;stroke-width:0.529167"
           x="7.0492778"
           y="11.310683">Macska</tspan></text>
      <text
         xml:space="preserve"
         style="font-style:normal;font-variant:normal;font-weight:normal;font-stretch:normal;font-size:1.41111px;font-family:Arial;-inkscape-font-specification:'Arial, Normal';font-variant-ligatures:normal;font-variant-caps:normal;font-variant-numeric:normal;font-variant-east-asian:normal;fill:#000000;fill-opacity:1;fill-rule:nonzero;stroke:#000000;stroke-width:0.529167;stroke-linecap:round;stroke-dasharray:none;stroke-opacity:0;paint-order:markers stroke fill"
         x="7.1336827"
         y="13.097806"
         id="text18"><tspan
           sodipodi:role="line"
           id="tspan18"
           style="stroke-width:0.529167"
           x="7.1336827"
           y="13.097806">Falatok</tspan></text>
    </g>
  </g>
</svg>
