<?xml version="1.0" encoding="UTF-8" standalone="no"?>
<!-- Created with Inkscape (http://www.inkscape.org/) -->

<svg
   width="66.599998"
   height="100"
   viewBox="0 0 17.62125 26.458331"
   version="1.1"
   id="svg12"
   sodipodi:docname="f9.svg"
   inkscape:version="1.3.2 (091e20e, 2023-11-25, custom)"
   xmlns:inkscape="http://www.inkscape.org/namespaces/inkscape"
   xmlns:sodipodi="http://sodipodi.sourceforge.net/DTD/sodipodi-0.dtd"
   xmlns="http://www.w3.org/2000/svg"
   xmlns:svg="http://www.w3.org/2000/svg">
  <sodipodi:namedview
     id="namedview14"
     pagecolor="#505050"
     bordercolor="#eeeeee"
     borderopacity="1"
     inkscape:showpageshadow="true"
     inkscape:pageopacity="0"
     inkscape:pagecheckerboard="true"
     inkscape:deskcolor="#505050"
     inkscape:document-units="px"
     showgrid="false"
     inkscape:zoom="3.7193817"
     inkscape:cx="18.013747"
     inkscape:cy="66.005594"
     inkscape:window-width="1920"
     inkscape:window-height="1017"
     inkscape:window-x="-8"
     inkscape:window-y="-8"
     inkscape:window-maximized="1"
     inkscape:current-layer="layer3">
    <inkscape:page
       x="0"
       y="0"
       width="17.62125"
       height="26.45833"
       id="page2"
       margin="0"
       bleed="0" />
  </sodipodi:namedview>
  <defs
     id="defs9">
    <rect
       x="25.760456"
       y="35.171102"
       width="23.479087"
       height="21.387833"
       id="rect6" />
    <linearGradient
       id="linearGradient3009"
       inkscape:swatch="solid">
      <stop
         style="stop-color:#e1c79e;stop-opacity:1;"
         offset="0"
         id="stop3007" />
    </linearGradient>
  </defs>
  <g
     inkscape:label="Réteg 1"
     inkscape:groupmode="layer"
     id="layer1" />
  <g
     inkscape:groupmode="layer"
     id="layer3"
     inkscape:label="Réteg 3">
    <path
       id="path18"
       style="fill:#552200;stroke:#000000;stroke-width:0.540368;stroke-linecap:round;stroke-opacity:0;paint-order:markers stroke fill"
       d="m 10.36021,27.003994 c 0.163893,-0.855462 -0.8320747,-1.604752 -0.272903,-1.990479 0.559173,-0.385725 1.48701,-0.0105 2.072385,0.838095 0.585373,0.848594 1.040743,1.431166 0.481567,1.816895 -0.559172,0.385727 -2.502968,0.493832 -2.281049,-0.664511 z"
       sodipodi:nodetypes="sssss" />
    <path
       id="path18-42"
       style="fill:#552200;stroke:#000000;stroke-width:0.540368;stroke-linecap:round;stroke-opacity:0;paint-order:markers stroke fill"
       d="m 11.078314,18.509533 c 0.867343,0.07995 1.516263,-0.984137 1.954522,-0.465111 0.438257,0.519027 0.155007,1.478946 -0.632664,2.144043 -0.787668,0.665095 -1.323213,1.174942 -1.761474,0.655912 -0.438259,-0.519025 -0.7348149,-2.443105 0.439615,-2.334844 z"
       sodipodi:nodetypes="sssss" />
    <path
       id="path18-25"
       style="fill:#784421;stroke:#000000;stroke-width:0.540368;stroke-linecap:round;stroke-opacity:0;paint-order:markers stroke fill"
       d="m 14.822859,19.706513 c 0.287464,0.822218 1.524947,0.970627 1.234799,1.584853 -0.290149,0.614224 -1.281009,0.755198 -2.213152,0.314872 -0.93214,-0.440327 -1.618348,-0.715772 -1.328198,-1.330001 0.290149,-0.614225 1.917307,-1.683051 2.306551,-0.569724 z"
       sodipodi:nodetypes="sssss" />
    <path
       id="path18-2"
       style="fill:#803300;stroke:#000000;stroke-width:0.540368;stroke-linecap:round;stroke-opacity:0;paint-order:markers stroke fill"
       d="m 10.441175,21.670614 c 0.773511,0.400444 1.775136,-0.341272 1.985889,0.304516 0.21075,0.64579 -0.412881,1.42858 -1.392922,1.748414 -0.980041,0.319833 -1.6680729,0.590695 -1.8788247,-0.05509 -0.2107514,-0.645787 0.238479,-2.540049 1.2858567,-1.997833 z"
       sodipodi:nodetypes="sssss" />
    <path
       id="path18-7"
       style="fill:#d38d5f;stroke:#000000;stroke-width:0.529167;stroke-linecap:round;stroke-opacity:0;paint-order:markers stroke fill"
       d="m 13.542534,24.607146 c -0.500372,-0.692707 -1.76801,-0.579348 -1.640435,-1.198344 0.127574,-0.618997 1.074673,-0.946912 2.115402,-0.732416 1.040729,0.214494 1.794146,0.327943 1.666571,0.946939 -0.127574,0.618997 -1.464006,1.92178 -2.141539,0.983818 z"
       sodipodi:nodetypes="sssss" />
    <path
       id="path18-4"
       style="fill:#803300;stroke:#000000;stroke-width:0.529167;stroke-linecap:round;stroke-opacity:0;paint-order:markers stroke fill"
       d="m 14.985057,27.361445 c -0.783895,-0.340176 -1.816017,0.404457 -2.022334,-0.192924 -0.206317,-0.597382 0.440648,-1.36286 1.445037,-1.709745 1.004389,-0.346884 1.710141,-0.633973 1.916459,-0.03659 0.206317,0.597382 -0.277725,2.399878 -1.339161,1.93926 z"
       sodipodi:nodetypes="sssss" />
    <g
       id="g18"
       transform="rotate(144.57401,8.8797794,11.301674)">
      <path
         id="rect5"
         style="fill:#d4a300;stroke:#ad6800;stroke-width:0.529167;stroke-linecap:round;paint-order:markers stroke fill"
         d="m 5.5834122,6.7403355 c 0.2444557,-0.331595 7.6092798,-0.2376784 7.8469578,0 0.224865,0.2248646 0.299521,10.4145945 0,10.7141155 -0.290214,0.290214 -7.581894,0.265064 -7.8469578,0 -0.3120967,-0.312097 -0.2355363,-10.3946193 0,-10.7141155 z"
         sodipodi:nodetypes="sssss" />
      <text
         xml:space="preserve"
         style="font-size:5.64444px;font-family:'Times New Roman';-inkscape-font-specification:'Times New Roman, ';fill:#000000;fill-opacity:1;fill-rule:nonzero;stroke:#000000;stroke-width:0.529167;stroke-linecap:round;stroke-dasharray:none;stroke-opacity:0;paint-order:markers stroke fill"
         x="6.6710067"
         y="9.4611368"
         id="text11"><tspan
           sodipodi:role="line"
           style="font-style:normal;font-variant:normal;font-weight:normal;font-stretch:normal;font-size:1.41111px;font-family:Arial;-inkscape-font-specification:'Arial, Normal';font-variant-ligatures:normal;font-variant-caps:normal;font-variant-numeric:normal;font-variant-east-asian:normal;fill:#000000;fill-opacity:1;stroke-width:0.529167;stroke-dasharray:none"
           x="6.6710067"
           y="9.4611368"
           id="tspan16">Prémium</tspan></text>
      <text
         xml:space="preserve"
         style="font-style:normal;font-variant:normal;font-weight:normal;font-stretch:normal;font-size:1.41111px;font-family:Arial;-inkscape-font-specification:'Arial, Normal';font-variant-ligatures:normal;font-variant-caps:normal;font-variant-numeric:normal;font-variant-east-asian:normal;fill:#000000;fill-opacity:1;fill-rule:nonzero;stroke:#000000;stroke-width:0.529167;stroke-linecap:round;stroke-dasharray:none;stroke-opacity:0;paint-order:markers stroke fill"
         x="7.0492778"
         y="11.310683"
         id="text17"><tspan
           sodipodi:role="line"
           id="tspan17"
           style="fill:#000000;fill-opacity:1;stroke-width:0.529167"
           x="7.0492778"
           y="11.310683">Macska</tspan></text>
      <text
         xml:space="preserve"
         style="font-style:normal;font-variant:normal;font-weight:normal;font-stretch:normal;font-size:1.41111px;font-family:Arial;-inkscape-font-specification:'Arial, Normal';font-variant-ligatures:normal;font-variant-caps:normal;font-variant-numeric:normal;font-variant-east-asian:normal;fill:#000000;fill-opacity:1;fill-rule:nonzero;stroke:#000000;stroke-width:0.529167;stroke-linecap:round;stroke-dasharray:none;stroke-opacity:0;paint-order:markers stroke fill"
         x="7.1336827"
         y="13.097806"
         id="text18"><tspan
           sodipodi:role="line"
           id="tspan18"
           style="stroke-width:0.529167"
           x="7.1336827"
           y="13.097806">Falatok</tspan></text>
    </g>
  </g>
</svg>
