<?xml version="1.0" encoding="UTF-8" standalone="no"?>
<!-- Created with Inkscape (http://www.inkscape.org/) -->

<svg
   width="100"
   height="100"
   viewBox="0 0 26.458333 26.458333"
   version="1.1"
   id="svg12"
   sodipodi:docname="cat3.svg"
   inkscape:version="1.3.2 (091e20e, 2023-11-25, custom)"
   xmlns:inkscape="http://www.inkscape.org/namespaces/inkscape"
   xmlns:sodipodi="http://sodipodi.sourceforge.net/DTD/sodipodi-0.dtd"
   xmlns="http://www.w3.org/2000/svg"
   xmlns:svg="http://www.w3.org/2000/svg">
  <sodipodi:namedview
     id="namedview14"
     pagecolor="#505050"
     bordercolor="#eeeeee"
     borderopacity="1"
     inkscape:showpageshadow="true"
     inkscape:pageopacity="0"
     inkscape:pagecheckerboard="true"
     inkscape:deskcolor="#505050"
     inkscape:document-units="px"
     showgrid="false"
     inkscape:zoom="3.7193817"
     inkscape:cx="38.043958"
     inkscape:cy="56.86429"
     inkscape:window-width="1920"
     inkscape:window-height="1017"
     inkscape:window-x="-8"
     inkscape:window-y="-8"
     inkscape:window-maximized="1"
     inkscape:current-layer="layer2" />
  <defs
     id="defs9">
    <linearGradient
       id="swatch6"
       inkscape:swatch="solid">
      <stop
         style="stop-color:#b3b3b3;stop-opacity:1;"
         offset="0"
         id="stop7" />
    </linearGradient>
    <linearGradient
       id="linearGradient3009"
       inkscape:swatch="solid">
      <stop
         style="stop-color:#e1c79e;stop-opacity:1;"
         offset="0"
         id="stop3007" />
    </linearGradient>
  </defs>
  <g
     inkscape:groupmode="layer"
     id="layer2"
     inkscape:label="Réteg 2">
    <path
       id="rect201"
       style="fill:#161410;stroke:#000000;stroke-width:0.264583;fill-opacity:1"
       d="m 2.7767111,13.959531 c 0.936061,-0.311409 2.1153709,-0.4657 2.9595032,-0.0031 1.7322757,0.949369 0.4241912,3.47416 1.4668555,4.289756 1.1624969,0.909331 2.286125,-1.017825 3.4621252,-0.515737 1.419218,0.605929 3.462738,5.100752 4.524136,5.610422 0.584051,0.280456 1.85992,0.564484 1.85992,0.564484 0.477494,0.144919 0.745235,0.645995 0.600316,1.123489 -0.144919,0.477494 -0.645995,0.745235 -1.123489,0.600316 0,0 -1.407544,-0.438569 -1.991595,-0.719024 C 13.473085,24.400493 11.035737,18.49682 9.3660056,19.390296 8.0053962,20.11836 7.0346966,19.978491 5.8430685,19.107683 4.6514395,18.236875 5.9847246,15.730379 5.2236781,15.140982 4.4626315,14.551585 2.5268795,15.559309 2.5268795,15.559309 2.0490899,15.711859 1.4243872,15.657419 1.4059626,14.982854 1.3923376,14.484039 2.2356667,14.139525 2.7767111,13.959531 Z"
       sodipodi:nodetypes="asssssssssssssa" />
  </g>
  <g
     inkscape:label="Réteg 1"
     inkscape:groupmode="layer"
     id="layer1">
    <path
       id="rect513"
       style="fill:#1a1a1a;fill-opacity:1;stroke:#000000;stroke-width:0.264583;stroke-dasharray:none;stroke-opacity:1;fill-rule:nonzero"
       d="m 11.213813,20.931218 c 0,0 -0.270266,-6.341788 0.614056,-9.330656 0.221347,-0.748118 1.141805,-2.0431251 1.141805,-2.0431251 -0.218934,-1.0125826 -0.169728,-1.9945239 0.0765,-2.897858 0.246233,-0.9033342 0.689493,-1.7280614 1.258668,-2.4262156 0.284587,-0.3490772 0.600654,-2.4013892 0.939309,-2.6811841 0.338656,-0.279795 0.699901,1.2129269 1.074847,1.0144055 0.749891,-0.3970425 1.554585,-0.6195472 2.342968,-0.6195472 0.788383,0 1.538344,0.2121403 2.219818,0.5962272 0.340737,0.1920437 0.664353,-1.3078038 0.96709,-1.0348104 0.302737,0.2729932 0.584594,2.3188275 0.841815,2.6627224 0.514441,0.6877903 0.94419,1.5583006 1.217618,2.4184422 0.303063,0.9533681 0.445956,1.9137777 0.445956,2.967818 0,0 1.083397,1.2691721 1.332727,2.0431251 0.954676,2.963435 0.423134,9.330656 0.423134,9.330656 -0.121498,3.975793 -3.321878,5.03245 -7.448158,5.03245 -4.126279,0 -7.448158,-0.875177 -7.448158,-5.03245 z"
       sodipodi:nodetypes="sasssssssssssassss" />
    <path
       id="rect4252"
       style="fill:#f53499;fill-opacity:1;stroke:#000000;stroke-width:0.264583;stroke-dasharray:none"
       d="m 18.442015,5.8967897 h 0.354714 c 0.271273,0 0.489663,0.2183897 0.489663,0.4896631 0.05149,0.7237079 0.01976,1.1454323 -0.644896,1.4490925 -0.66978,-0.2797806 -0.689144,-0.6725743 -0.689144,-1.4490925 0,-0.2712734 0.21839,-0.4896631 0.489663,-0.4896631 z"
       sodipodi:nodetypes="sscccs" />
    <rect
       style="fill:#000000;stroke-width:0.11952"
       id="rect233"
       width="4.7925596"
       height="0.15868744"
       x="14.20662"
       y="4.1203027"
       ry="0.079343721"
       transform="matrix(0.99292347,0.11875594,-0.10498667,0.99447363,0,0)" />
    <rect
       style="fill:#000000;stroke-width:0.11952"
       id="rect233-3"
       width="4.7925596"
       height="0.15868744"
       x="13.305581"
       y="7.0636783"
       ry="0.079343721"
       transform="matrix(0.99980313,-0.0198421,0.03369339,0.99943222,0,0)" />
    <rect
       style="fill:#000000;stroke-width:0.11952"
       id="rect233-6"
       width="4.7925596"
       height="0.15868744"
       x="12.235741"
       y="9.6198149"
       ry="0.079343721"
       transform="matrix(0.98932856,-0.14570172,0.15939579,0.98721476,0,0)" />
    <rect
       style="fill:#000000;stroke-width:0.11952"
       id="rect233-7"
       width="4.7925596"
       height="0.15868744"
       x="19.453463"
       y="4.716114"
       ry="0.079343721"
       transform="matrix(0.99292347,0.11875594,-0.10498667,0.99447363,0,0)" />
    <rect
       style="fill:#000000;stroke-width:0.11952"
       id="rect233-5"
       width="4.7925596"
       height="0.15868744"
       x="18.734428"
       y="6.5954123"
       ry="0.079343721"
       transform="matrix(0.9999824,0.00593264,0.00792361,0.99996861,0,0)" />
    <rect
       style="fill:#000000;stroke-width:0.116032"
       id="rect233-35"
       width="4.522851"
       height="0.15847935"
       x="17.682962"
       y="9.055934"
       ry="0.079239674"
       transform="matrix(0.98900313,-0.14789458,0.14466561,0.9894806,0,0)" />
  </g>
  <g
     inkscape:groupmode="layer"
     id="layer3"
     inkscape:label="Réteg 3">
    <g
       id="g4246">
      <path
         id="path1499-3"
         style="fill:#d9fd05;stroke:#000000;stroke-width:0.264583"
         d="m 19.185714,5.1980684 c 0,0.2547351 0.56699,0.2958604 1.174854,0.2958604 0.607864,0 1.100635,-0.2065035 1.100635,-0.4612387 0,-0.2547351 -0.492771,-0.4612387 -1.100635,-0.4612387 -0.607864,0 -1.174854,0.3718819 -1.174854,0.626617 z"
         sodipodi:nodetypes="cscsc" />
      <ellipse
         style="fill:#000000;fill-opacity:1;stroke:#000000;stroke-width:0;stroke-linecap:butt;stroke-linejoin:miter;stroke-dasharray:none;stroke-dashoffset:0;stroke-opacity:1"
         id="path3950-6"
         cx="20.271749"
         cy="5.03265"
         rx="0.12791067"
         ry="0.29126638" />
    </g>
    <g
       id="g4250">
      <path
         id="path1499"
         style="fill:#d9fd05;stroke:#000000;stroke-width:0.264583"
         d="m 18.040905,5.2455728 c 0,0.2547351 -0.56699,0.2958604 -1.174854,0.2958604 -0.607864,0 -1.100635,-0.2065036 -1.100635,-0.4612387 0,-0.2547351 0.492771,-0.4612387 1.100635,-0.4612387 0.607864,0 1.174854,0.3718819 1.174854,0.626617 z"
         sodipodi:nodetypes="cscsc" />
      <ellipse
         style="fill:#000000;fill-opacity:1;stroke:#000000;stroke-width:0;stroke-linecap:butt;stroke-linejoin:miter;stroke-dasharray:none;stroke-dashoffset:0;stroke-opacity:1"
         id="path3950"
         cx="16.927013"
         cy="5.102397"
         rx="0.12791067"
         ry="0.29126638" />
    </g>
  </g>
</svg>
