<?xml version="1.0" encoding="UTF-8" standalone="no"?>
<!-- Created with Inkscape (http://www.inkscape.org/) -->

<svg
   width="25"
   height="25"
   viewBox="0 0 6.614583 6.6145835"
   version="1.1"
   id="svg1"
   sodipodi:docname="food_icon.svg"
   inkscape:version="1.3.2 (091e20e, 2023-11-25, custom)"
   xmlns:inkscape="http://www.inkscape.org/namespaces/inkscape"
   xmlns:sodipodi="http://sodipodi.sourceforge.net/DTD/sodipodi-0.dtd"
   xmlns="http://www.w3.org/2000/svg"
   xmlns:svg="http://www.w3.org/2000/svg">
  <sodipodi:namedview
     id="namedview1"
     pagecolor="#ffffff"
     bordercolor="#999999"
     borderopacity="1"
     inkscape:showpageshadow="0"
     inkscape:pageopacity="0"
     inkscape:pagecheckerboard="0"
     inkscape:deskcolor="#d1d1d1"
     inkscape:document-units="mm"
     inkscape:zoom="21.005396"
     inkscape:cx="9.2595255"
     inkscape:cy="2.5231612"
     inkscape:window-width="1396"
     inkscape:window-height="1040"
     inkscape:window-x="328"
     inkscape:window-y="33"
     inkscape:window-maximized="0"
     inkscape:current-layer="layer1" />
  <defs
     id="defs1" />
  <g
     inkscape:label="Réteg 1"
     inkscape:groupmode="layer"
     id="layer1">
    <g
       id="g2"
       transform="matrix(0.97812059,0.5605219,-0.5605219,0.97812059,1.9322402,-2.4790042)">
      <path
         id="path2"
         style="fill:#ffffff;stroke:#040404;stroke-width:0.265;stroke-linecap:round;stroke-dasharray:none;paint-order:markers stroke fill"
         d="m 3.611534,3.4174855 c -10e-8,0.2607087 -0.675909,0.2761075 -1.5096849,0.2761075 -0.416888,0 -0.7943092,-0.00385 -1.0675084,-0.040288 C 0.8977411,3.6350858 0.78961928,3.9902756 0.50149539,3.8422679 0.28651989,3.7318361 0.59216418,3.4826626 0.59216415,3.4174855 0.59216412,3.3523083 0.20049882,3.1259768 0.40964498,3.0233198 0.72113594,2.8704279 0.89106094,3.2199252 1.0254339,3.208386 1.2941798,3.185308 1.6671477,3.194818 2.0840357,3.194818 c 0.833776,0 1.5274984,-0.038041 1.5274983,0.2226675 z"
         sodipodi:nodetypes="sssssssss" />
      <path
         id="path1"
         style="fill:#a15a25;fill-opacity:1;stroke:#040404;stroke-width:0.201069;stroke-linecap:round;paint-order:markers stroke fill"
         d="m 6.4053177,3.4348998 c 0,0.6872605 -0.5448118,1.2443951 -1.665575,1.2443951 -0.5603816,0 -1.1586485,-0.1392837 -1.61682,-0.3644748 C 2.893837,4.2022244 2.6080869,4.1163579 2.5629847,3.9192745 c -0.092365,-0.4036075 -0.094613,-0.7745747 0,-0.9687495 0.088559,-0.1817507 0.3308523,-0.2829498 0.559938,-0.3955455 0.4581715,-0.2251912 1.0564384,-0.3644749 1.61682,-0.3644749 1.1207632,0 1.665575,0.5571347 1.665575,1.2443952 z"
         sodipodi:nodetypes="ssssssss" />
    </g>
  </g>
</svg>
