<?xml version="1.0" encoding="UTF-8" standalone="no"?>
<!-- Created with Inkscape (http://www.inkscape.org/) -->

<svg
   width="75"
   height="50"
   viewBox="0 0 19.84375 13.229166"
   version="1.1"
   id="svg12"
   sodipodi:docname="logo.svg"
   inkscape:version="1.3.2 (091e20e, 2023-11-25, custom)"
   xmlns:inkscape="http://www.inkscape.org/namespaces/inkscape"
   xmlns:sodipodi="http://sodipodi.sourceforge.net/DTD/sodipodi-0.dtd"
   xmlns="http://www.w3.org/2000/svg"
   xmlns:svg="http://www.w3.org/2000/svg">
  <sodipodi:namedview
     id="namedview14"
     pagecolor="#505050"
     bordercolor="#eeeeee"
     borderopacity="1"
     inkscape:showpageshadow="true"
     inkscape:pageopacity="0"
     inkscape:pagecheckerboard="true"
     inkscape:deskcolor="#505050"
     inkscape:document-units="px"
     showgrid="false"
     inkscape:zoom="5.26"
     inkscape:cx="37.737642"
     inkscape:cy="21.768061"
     inkscape:window-width="1920"
     inkscape:window-height="1017"
     inkscape:window-x="-8"
     inkscape:window-y="-8"
     inkscape:window-maximized="1"
     inkscape:current-layer="layer1">
    <inkscape:page
       x="0"
       y="0"
       width="19.84375"
       height="13.229166"
       id="page1"
       margin="0 0 0 0"
       bleed="0" />
  </sodipodi:namedview>
  <defs
     id="defs9">
    <linearGradient
       id="linearGradient3009"
       inkscape:swatch="solid">
      <stop
         style="stop-color:#e1c79e;stop-opacity:1;"
         offset="0"
         id="stop3007" />
    </linearGradient>
  </defs>
  <g
     inkscape:groupmode="layer"
     id="layer2"
     inkscape:label="Réteg 2">
    <path
       id="rect201"
       style="fill:#e1c79e;stroke:#000000;stroke-width:0.264583"
       d="m -5.1607892,13.959531 c 0.936061,-0.311409 2.1153709,-0.4657 2.9595032,-0.0031 1.73227565,0.949369 0.4241912,3.47416 1.4668555,4.289756 1.1624968,0.909331 2.2861248,-1.017825 3.4621247,-0.515737 1.4192174,0.605929 3.4627362,5.100752 4.5241336,5.610422 0.5840507,0.280456 1.8599188,0.564484 1.8599188,0.564484 0.4774937,0.144919 0.7452347,0.645995 0.6003157,1.123489 -0.144919,0.477494 -0.6459947,0.745235 -1.1234884,0.600316 0,0 -1.4075431,-0.438569 -1.9915938,-0.719024 -1.0613974,-0.509644 -3.4987439,-6.413317 -5.168475,-5.519841 -1.3606093,0.728064 -2.3313088,0.588195 -3.5229369,-0.282613 -1.191629,-0.870808 0.1416561,-3.377304 -0.6193904,-3.966701 -0.7610466,-0.589397 -2.6967986,0.418327 -2.6967986,0.418327 -0.4777896,0.15255 -1.1024923,0.09811 -1.1209169,-0.576455 -0.013625,-0.498815 0.8297041,-0.843329 1.3707485,-1.023323 z"
       sodipodi:nodetypes="asssssssssssssa" />
  </g>
  <g
     inkscape:label="Réteg 1"
     inkscape:groupmode="layer"
     id="layer1">
    <path
       id="rect513"
       style="fill:#e1c79e;fill-opacity:1;stroke:#000000;stroke-width:0.264583;stroke-dasharray:none;stroke-opacity:1"
       d="m 3.2763119,20.931218 c 0,0 -0.2702657,-6.341788 0.6140557,-9.330656 C 4.1117146,10.852444 5.032172,9.5574369 5.032172,9.5574369 4.813238,8.5448543 4.862444,7.562913 5.108672,6.6595789 5.3549047,5.7562447 5.7981644,4.9315175 6.3673391,4.2333633 6.6519261,3.8842861 6.9679928,1.8319741 7.3066478,1.5521792 7.6453035,1.2723842 8.0065482,2.7651061 8.3814942,2.5665847 9.1313846,2.1695422 9.9360783,1.9470375 10.724461,1.9470375 c 0.788383,0 1.538344,0.2121403 2.219818,0.5962272 0.340737,0.1920437 0.664353,-1.3078038 0.96709,-1.0348104 0.302737,0.2729932 0.584594,2.3188275 0.841815,2.6627224 0.514441,0.6877903 0.94419,1.5583006 1.217618,2.4184422 0.303063,0.9533681 0.445956,1.9137777 0.445956,2.967818 0,0 1.083397,1.2691721 1.332727,2.0431251 0.954676,2.963435 0.423134,9.330656 0.423134,9.330656 -0.121498,3.975793 -3.321878,5.03245 -7.448158,5.03245 -4.1262769,0 -7.4481541,-0.875177 -7.4481541,-5.03245 z"
       sodipodi:nodetypes="sasssssssssssassss" />
    <path
       id="rect4252"
       style="fill:#f53499;fill-opacity:1;stroke:#000000;stroke-width:0.264583;stroke-dasharray:none"
       d="m 10.50451,5.8967897 h 0.354714 c 0.271273,0 0.489663,0.2183897 0.489663,0.4896631 0.05149,0.7237079 0.01976,1.1454323 -0.644896,1.4490925 -0.66978,-0.2797806 -0.689144,-0.6725743 -0.689144,-1.4490925 0,-0.2712734 0.21839,-0.4896631 0.489663,-0.4896631 z"
       sodipodi:nodetypes="sscccs" />
    <rect
       style="fill:#000000;stroke-width:0.11952"
       id="rect233"
       width="4.7925596"
       height="0.15868744"
       x="6.3122282"
       y="5.0630169"
       ry="0.079343721"
       transform="matrix(0.99292347,0.11875594,-0.10498667,0.99447363,0,0)" />
    <rect
       style="fill:#000000;stroke-width:0.11952"
       id="rect233-3"
       width="4.7925596"
       height="0.15868744"
       x="5.3718238"
       y="6.9061646"
       ry="0.079343721"
       transform="matrix(0.99980313,-0.0198421,0.03369339,0.99943222,0,0)" />
    <rect
       style="fill:#000000;stroke-width:0.11952"
       id="rect233-6"
       width="4.7925596"
       height="0.15868744"
       x="4.3989697"
       y="8.4632034"
       ry="0.079343721"
       transform="matrix(0.98932856,-0.14570172,0.15939579,0.98721476,0,0)" />
    <rect
       style="fill:#000000;stroke-width:0.11952"
       id="rect233-7"
       width="4.7925596"
       height="0.15868744"
       x="11.559071"
       y="5.6588283"
       ry="0.079343721"
       transform="matrix(0.99292347,0.11875594,-0.10498667,0.99447363,0,0)" />
    <rect
       style="fill:#000000;stroke-width:0.11952"
       id="rect233-5"
       width="4.7925596"
       height="0.15868744"
       x="10.796415"
       y="6.6425047"
       ry="0.079343721"
       transform="matrix(0.9999824,0.00593264,0.00792361,0.99996861,0,0)" />
    <rect
       style="fill:#000000;stroke-width:0.116032"
       id="rect233-35"
       width="4.522851"
       height="0.15847935"
       x="9.8289223"
       y="7.8820133"
       ry="0.079239674"
       transform="matrix(0.98900313,-0.14789458,0.14466561,0.9894806,0,0)" />
    <path
       id="rect1"
       style="stroke:#000000;stroke-width:0.264999;stroke-linecap:round;stroke-opacity:0;paint-order:markers stroke fill"
       d="m 10.688966,7.9727111 c 0.298302,-0.011608 0.410284,0.5011197 0.704214,0.5533112 0.360226,0.063963 0.902901,-0.6771958 1.043746,-0.3395319 0.147952,0.3547034 -0.640568,0.53069 -1.024883,0.5281607 C 11.15327,8.712948 10.985381,8.3431324 10.726692,8.3499687 10.474812,8.356625 10.330946,8.7331711 10.079066,8.7398016 9.7491415,8.7484865 9.0762419,8.5783672 9.2050859,8.2745172 9.3220413,7.998704 9.7675423,8.6152136 10.060203,8.5511728 c 0.27821,-0.060879 0.344186,-0.5673881 0.628763,-0.5784617 z"
       sodipodi:nodetypes="sssssssss" />
  </g>
  <g
     inkscape:groupmode="layer"
     id="layer3"
     inkscape:label="Réteg 3">
    <g
       id="g4246"
       transform="translate(-7.9375004)">
      <path
         id="path1499-3"
         style="fill:#d9fd05;stroke:#000000;stroke-width:0.264583"
         d="m 19.185714,5.1980684 c 0,0.2547351 0.56699,0.2958604 1.174854,0.2958604 0.607864,0 1.100635,-0.2065035 1.100635,-0.4612387 0,-0.2547351 -0.492771,-0.4612387 -1.100635,-0.4612387 -0.607864,0 -1.174854,0.3718819 -1.174854,0.626617 z"
         sodipodi:nodetypes="cscsc" />
      <ellipse
         style="fill:#000000;fill-opacity:1;stroke:#000000;stroke-width:0;stroke-linecap:butt;stroke-linejoin:miter;stroke-dasharray:none;stroke-dashoffset:0;stroke-opacity:1"
         id="path3950-6"
         cx="20.271749"
         cy="5.03265"
         rx="0.12791067"
         ry="0.29126638" />
    </g>
    <g
       id="g4250"
       transform="translate(-7.9375004)">
      <path
         id="path1499"
         style="fill:#d9fd05;stroke:#000000;stroke-width:0.264583"
         d="m 18.040905,5.2455728 c 0,0.2547351 -0.56699,0.2958604 -1.174854,0.2958604 -0.607864,0 -1.100635,-0.2065036 -1.100635,-0.4612387 0,-0.2547351 0.492771,-0.4612387 1.100635,-0.4612387 0.607864,0 1.174854,0.3718819 1.174854,0.626617 z"
         sodipodi:nodetypes="cscsc" />
      <ellipse
         style="fill:#000000;fill-opacity:1;stroke:#000000;stroke-width:0;stroke-linecap:butt;stroke-linejoin:miter;stroke-dasharray:none;stroke-dashoffset:0;stroke-opacity:1"
         id="path3950"
         cx="16.927013"
         cy="5.102397"
         rx="0.12791067"
         ry="0.29126638" />
    </g>
  </g>
</svg>
