<?xml version="1.0" encoding="UTF-8" standalone="no"?>
<!-- Created with Inkscape (http://www.inkscape.org/) -->

<svg
   width="100"
   height="100"
   viewBox="0 0 26.458333 26.458333"
   version="1.1"
   id="svg1"
   inkscape:version="1.3.2 (091e20e, 2023-11-25, custom)"
   sodipodi:docname="mouse.svg"
   xmlns:inkscape="http://www.inkscape.org/namespaces/inkscape"
   xmlns:sodipodi="http://sodipodi.sourceforge.net/DTD/sodipodi-0.dtd"
   xmlns="http://www.w3.org/2000/svg"
   xmlns:svg="http://www.w3.org/2000/svg">
  <sodipodi:namedview
     id="namedview1"
     pagecolor="#ffffff"
     bordercolor="#999999"
     borderopacity="1"
     inkscape:showpageshadow="false"
     inkscape:pageopacity="0"
     inkscape:pagecheckerboard="false"
     inkscape:deskcolor="#b6b6b6"
     inkscape:document-units="mm"
     inkscape:clip-to-page="false"
     showborder="true"
     inkscape:lockguides="false"
     inkscape:zoom="5.8511223"
     inkscape:cx="52.383113"
     inkscape:cy="31.190597"
     inkscape:window-width="1920"
     inkscape:window-height="1017"
     inkscape:window-x="-8"
     inkscape:window-y="-8"
     inkscape:window-maximized="1"
     inkscape:current-layer="layer3" />
  <defs
     id="defs1">
    <inkscape:perspective
       sodipodi:type="inkscape:persp3d"
       inkscape:vp_x="0 : 13.229166 : 1"
       inkscape:vp_y="0 : 1000 : 0"
       inkscape:vp_z="39.662352 : 13.364824 : 1"
       inkscape:persp3d-origin="13.229166 : 8.8194443 : 1"
       id="perspective1" />
  </defs>
  <g
     inkscape:groupmode="layer"
     id="layer3"
     inkscape:label="Layer 1">
    <g
       id="g12"
       transform="matrix(1.2126424,0,0,1.2126424,-2.7999156,0.10228149)"
       style="stroke-width:0.218187;stroke-dasharray:none">
      <path
         id="rect11"
         style="fill:#a4a4a4;fill-opacity:1;stroke:#000000;stroke-width:0.218187;stroke-linecap:round;stroke-dasharray:none;paint-order:stroke markers fill"
         d="m 12.026156,18.766286 c 0.0021,-0.351717 0.161135,-0.594283 0.343378,-0.664251 0.182242,-0.06997 0.38769,0.03266 0.482617,0.37133 0.198305,0.707496 0.59271,1.297208 1.487094,1.720156 0.792902,0.374958 1.13668,0.410565 2.161319,0.211525 0.534917,-0.10391 1.692232,-1.531357 3.062072,-1.907015 1.36984,-0.375658 2.754957,0.500659 2.935432,0.718355 0.356416,0.429923 0.120026,0.56769 -0.321414,0.300585 -0.5979,-0.361775 -1.336189,-0.584655 -2.14108,-0.295213 -0.804891,0.289441 -1.249341,0.678538 -1.839797,1.173434 -1.023332,0.857713 -2.524127,1.203979 -3.424121,1.041411 -1.760785,-0.318054 -2.751796,-1.614981 -2.745495,-2.670317 z"
         sodipodi:nodetypes="sssssssssssss" />
      <path
         id="path8"
         style="fill:#a4a4a4;fill-opacity:1;stroke:#000000;stroke-width:0.218187;stroke-linecap:round;stroke-dasharray:none;paint-order:stroke markers fill"
         d="m 17.827501,11.209587 c 0,-2.4120553 -0.616778,-4.5957623 -1.613972,-6.1764543 -0.997196,-1.580693 -2.886614,-4.1555139 -3.896475,-4.1555139 -1.009861,0 -2.8992795,2.5748209 -3.8964745,4.1555139 -0.9971948,1.580692 -1.6139726,3.764399 -1.6139726,6.1764543 0,4.824112 2.4671111,7.137684 5.5104471,7.137684 3.043336,0 5.510447,-2.313572 5.510447,-7.137684 z"
         sodipodi:nodetypes="sszssss" />
      <ellipse
         style="fill:#ffffff;fill-opacity:1;stroke:#000000;stroke-width:0.218187;stroke-linecap:round;stroke-linejoin:miter;stroke-dasharray:none;stroke-opacity:1;paint-order:stroke markers fill"
         id="path9"
         cx="10.849876"
         cy="-4.3920212"
         rx="0.80182976"
         ry="0.78476959"
         transform="scale(1,-1)" />
      <ellipse
         style="fill:#ffffff;fill-opacity:1;stroke:#000000;stroke-width:0.218187;stroke-linecap:round;stroke-linejoin:miter;stroke-dasharray:none;stroke-opacity:1;paint-order:stroke markers fill"
         id="path9-2"
         cx="13.803542"
         cy="-4.4924212"
         rx="0.80182976"
         ry="0.78476959"
         transform="scale(1,-1)" />
      <circle
         style="fill:#e759b9;fill-opacity:0.997895;stroke:#000000;stroke-width:0.218187;stroke-linecap:round;stroke-linejoin:miter;stroke-dasharray:none;stroke-opacity:1;paint-order:stroke markers fill"
         id="path10"
         cx="12.299995"
         cy="-0.94586009"
         r="0.68240827"
         transform="scale(1,-1)" />
      <path
         id="path11"
         style="fill:#e759b9;fill-opacity:0;stroke:#000000;stroke-width:0.218187;stroke-linecap:round;stroke-dasharray:none;paint-order:stroke markers fill"
         d="m 11.319577,8.3765997 c 0.758335,-0.882604 0.585924,-1.543929 0.06033,-1.995522 -0.525595,-0.451592 -1.5755241,-0.708083 -2.3338592,0.174521 -0.758334,0.882604 -0.9379091,2.570077 -0.4123138,3.021669 0.5255952,0.4515923 1.927509,-0.318065 2.685843,-1.200668 z"
         sodipodi:nodetypes="sssss" />
      <path
         id="path11-6"
         style="fill:#e759b9;fill-opacity:0;stroke:#000000;stroke-width:0.218187;stroke-linecap:round;stroke-linejoin:miter;stroke-miterlimit:4;stroke-dasharray:none;paint-order:stroke markers fill"
         d="m 13.218981,8.2899497 c -0.758334,-0.882604 -0.585924,-1.543929 -0.06033,-1.995522 0.525596,-0.451592 1.575524,-0.708083 2.33386,0.174521 0.758334,0.882604 0.937909,2.570077 0.412313,3.021669 -0.525595,0.451592 -1.927509,-0.318065 -2.685844,-1.200668 z"
         sodipodi:nodetypes="sssss" />
      <circle
         style="fill:#000000;fill-opacity:1;stroke:#000000;stroke-width:0.218187;stroke-linecap:round;stroke-linejoin:miter;stroke-miterlimit:4;stroke-dasharray:none;stroke-opacity:0;paint-order:markers stroke fill"
         id="path12"
         cx="11.071286"
         cy="4.1487355"
         r="0.37200645" />
      <circle
         style="fill:#000000;fill-opacity:1;stroke:#000000;stroke-width:0.218187;stroke-linecap:round;stroke-linejoin:miter;stroke-miterlimit:4;stroke-dasharray:none;stroke-opacity:0;paint-order:markers stroke fill"
         id="path12-3"
         cx="13.622087"
         cy="4.2369342"
         r="0.37200645" />
    </g>
  </g>
</svg>
