<?xml version="1.0" encoding="UTF-8" standalone="no"?>
<!-- Created with Inkscape (http://www.inkscape.org/) -->

<svg
   width="100"
   height="100"
   viewBox="0 0 26.458333 26.458333"
   version="1.1"
   id="svg12"
   sodipodi:docname="cat9.svg"
   inkscape:version="1.3.2 (091e20e, 2023-11-25, custom)"
   inkscape:export-filename="shop\cat7.png"
   inkscape:export-xdpi="96"
   inkscape:export-ydpi="96"
   xmlns:inkscape="http://www.inkscape.org/namespaces/inkscape"
   xmlns:sodipodi="http://sodipodi.sourceforge.net/DTD/sodipodi-0.dtd"
   xmlns:xlink="http://www.w3.org/1999/xlink"
   xmlns="http://www.w3.org/2000/svg"
   xmlns:svg="http://www.w3.org/2000/svg">
  <sodipodi:namedview
     id="namedview14"
     pagecolor="#505050"
     bordercolor="#eeeeee"
     borderopacity="1"
     inkscape:showpageshadow="true"
     inkscape:pageopacity="0"
     inkscape:pagecheckerboard="true"
     inkscape:deskcolor="#505050"
     inkscape:document-units="px"
     showgrid="false"
     inkscape:zoom="5.26"
     inkscape:cx="55.13308"
     inkscape:cy="66.254753"
     inkscape:window-width="1920"
     inkscape:window-height="1017"
     inkscape:window-x="-8"
     inkscape:window-y="-8"
     inkscape:window-maximized="1"
     inkscape:current-layer="layer1" />
  <defs
     id="defs9">
    <linearGradient
       id="linearGradient553"
       inkscape:collect="always">
      <stop
         style="stop-color:#3d3d3d;stop-opacity:1;"
         offset="0.8025701"
         id="stop554" />
      <stop
         style="stop-color:#ffffff;stop-opacity:1;"
         offset="0.87032712"
         id="stop555" />
    </linearGradient>
    <linearGradient
       id="linearGradient552"
       inkscape:collect="always">
      <stop
         style="stop-color:#fffdfb;stop-opacity:1;"
         offset="0.50361615"
         id="stop552" />
      <stop
         style="stop-color:#3d3d3d;stop-opacity:1;"
         offset="0.58247614"
         id="stop553" />
    </linearGradient>
    <linearGradient
       id="linearGradient3009"
       inkscape:swatch="solid">
      <stop
         style="stop-color:#e1c79e;stop-opacity:1;"
         offset="0"
         id="stop3007" />
    </linearGradient>
    <radialGradient
       inkscape:collect="always"
       xlink:href="#linearGradient552"
       id="radialGradient553"
       cx="18.816916"
       cy="14.874993"
       fx="18.816916"
       fy="14.874993"
       r="7.673686"
       gradientTransform="matrix(1.1307241,-0.00865016,0.01043548,1.3640978,-2.6150535,-4.5461259)"
       gradientUnits="userSpaceOnUse" />
    <linearGradient
       inkscape:collect="always"
       xlink:href="#linearGradient553"
       id="linearGradient555"
       x1="14.150572"
       y1="10.057716"
       x2="0.81911343"
       y2="15.540527"
       gradientUnits="userSpaceOnUse" />
    <rect
       x="14.672466"
       y="26.339727"
       width="94.832817"
       height="31.441757"
       id="rect2" />
  </defs>
  <g
     inkscape:groupmode="layer"
     id="layer2"
     inkscape:label="Réteg 2">
    <path
       id="rect201"
       style="fill:url(#linearGradient555);stroke:#000000;stroke-width:0.264583;fill-opacity:1"
       d="m 2.7767111,13.959531 c 0.936061,-0.311409 2.1153709,-0.4657 2.9595032,-0.0031 1.7322757,0.949369 0.4241912,3.47416 1.4668555,4.289756 1.1624969,0.909331 2.286125,-1.017825 3.4621252,-0.515737 1.419218,0.605929 3.462738,5.100752 4.524136,5.610422 0.584051,0.280456 1.85992,0.564484 1.85992,0.564484 0.477494,0.144919 0.745235,0.645995 0.600316,1.123489 -0.144919,0.477494 -0.645995,0.745235 -1.123489,0.600316 0,0 -1.407544,-0.438569 -1.991595,-0.719024 C 13.473085,24.400493 11.035737,18.49682 9.3660056,19.390296 8.0053962,20.11836 7.0346966,19.978491 5.8430685,19.107683 4.6514395,18.236875 5.9847246,15.730379 5.2236781,15.140982 4.4626315,14.551585 2.5268795,15.559309 2.5268795,15.559309 2.0490899,15.711859 1.4243872,15.657419 1.4059626,14.982854 1.3923376,14.484039 2.2356667,14.139525 2.7767111,13.959531 Z"
       sodipodi:nodetypes="asssssssssssssa" />
  </g>
  <g
     inkscape:label="Réteg 1"
     inkscape:groupmode="layer"
     id="layer1">
    <path
       id="rect513"
       style="fill:url(#radialGradient553);fill-opacity:1;stroke:#000000;stroke-width:0.264583;stroke-dasharray:none;stroke-opacity:1"
       d="m 11.213813,20.931218 c 0,0 -0.270266,-6.341788 0.614056,-9.330656 0.221347,-0.748118 1.141805,-2.0431251 1.141805,-2.0431251 -0.218934,-1.0125826 -0.169728,-1.9945239 0.0765,-2.897858 0.246233,-0.9033342 0.689493,-1.7280614 1.258668,-2.4262156 0.284587,-0.3490772 0.600654,-2.4013892 0.939309,-2.6811841 0.338656,-0.279795 0.699901,1.2129269 1.074847,1.0144055 0.749891,-0.3970425 1.554585,-0.6195472 2.342968,-0.6195472 0.788383,0 1.538344,0.2121403 2.219818,0.5962272 0.340737,0.1920437 0.664353,-1.3078038 0.96709,-1.0348104 0.302737,0.2729932 0.584594,2.3188275 0.841815,2.6627224 0.514441,0.6877903 0.94419,1.5583006 1.217618,2.4184422 0.303063,0.9533681 0.445956,1.9137777 0.445956,2.967818 0,0 1.083397,1.2691721 1.332727,2.0431251 0.954676,2.963435 0.423134,9.330656 0.423134,9.330656 -0.121498,3.975793 -3.321878,5.03245 -7.448158,5.03245 -4.126279,0 -7.448158,-0.875177 -7.448158,-5.03245 z"
       sodipodi:nodetypes="sasssssssssssassss" />
    <path
       id="path1-4"
       style="fill-opacity:1;stroke:#000000;stroke-width:0.26458333;stroke-dasharray:none;fill:#3d3d3d"
       d="m 21.953428,19.503051 c 0,1.568546 0.514185,4.18972 0.350015,5.217635 -0.164172,1.027916 -1.0067,0.462574 -1.257218,0.462575 -0.250518,10e-7 -1.093047,0.565345 -1.257217,-0.462572 -0.164172,-1.027916 0.350013,-3.649091 0.350013,-5.217638 0,-3.137093 -0.09047,-5.680216 0.907204,-5.68021 1.142523,8e-6 0.907203,2.543119 0.907203,5.68021 z"
       sodipodi:nodetypes="sssssss" />
    <path
       id="path1-4-7"
       style="fill-opacity:1;stroke:#000000;stroke-width:0.264583;stroke-dasharray:none;fill:#3d3d3d"
       d="m 15.780198,19.566811 c 0,1.568546 -0.514185,4.18972 -0.350015,5.217635 0.164172,1.027916 1.0067,0.462574 1.257218,0.462575 0.250518,2e-6 1.093047,0.565345 1.257217,-0.462572 0.164172,-1.027916 -0.350013,-3.649091 -0.350013,-5.217638 0,-3.137092 0.09047,-5.680215 -0.907204,-5.680209 -1.142523,8e-6 -0.907203,2.543119 -0.907203,5.680209 z"
       sodipodi:nodetypes="sssssss" />
    <path
       id="rect4252"
       style="fill:#f53499;fill-opacity:1;stroke:#000000;stroke-width:0.264583;stroke-dasharray:none"
       d="m 18.442015,5.8967897 h 0.354714 c 0.271273,0 0.489663,0.2183897 0.489663,0.4896631 0.05149,0.7237079 0.01976,1.1454323 -0.644896,1.4490925 -0.66978,-0.2797806 -0.689144,-0.6725743 -0.689144,-1.4490925 0,-0.2712734 0.21839,-0.4896631 0.489663,-0.4896631 z"
       sodipodi:nodetypes="sscccs" />
    <rect
       style="fill:#000000;stroke-width:0.11952"
       id="rect233"
       width="4.7925596"
       height="0.15868744"
       x="14.20662"
       y="4.1203027"
       ry="0.079343721"
       transform="matrix(0.99292347,0.11875594,-0.10498667,0.99447363,0,0)" />
    <rect
       style="fill:#000000;stroke-width:0.11952"
       id="rect233-3"
       width="4.7925596"
       height="0.15868744"
       x="13.305581"
       y="7.0636783"
       ry="0.079343721"
       transform="matrix(0.99980313,-0.0198421,0.03369339,0.99943222,0,0)" />
    <rect
       style="fill:#000000;stroke-width:0.11952"
       id="rect233-6"
       width="4.7925596"
       height="0.15868744"
       x="12.235741"
       y="9.6198149"
       ry="0.079343721"
       transform="matrix(0.98932856,-0.14570172,0.15939579,0.98721476,0,0)" />
    <rect
       style="fill:#000000;stroke-width:0.11952"
       id="rect233-7"
       width="4.7925596"
       height="0.15868744"
       x="19.453463"
       y="4.716114"
       ry="0.079343721"
       transform="matrix(0.99292347,0.11875594,-0.10498667,0.99447363,0,0)" />
    <rect
       style="fill:#000000;stroke-width:0.11952"
       id="rect233-5"
       width="4.7925596"
       height="0.15868744"
       x="18.734428"
       y="6.5954123"
       ry="0.079343721"
       transform="matrix(0.9999824,0.00593264,0.00792361,0.99996861,0,0)" />
    <rect
       style="fill:#000000;stroke-width:0.116032"
       id="rect233-35"
       width="4.522851"
       height="0.15847935"
       x="17.682962"
       y="9.055934"
       ry="0.079239674"
       transform="matrix(0.98900313,-0.14789458,0.14466561,0.9894806,0,0)" />
    <path
       id="rect1"
       style="stroke:#000000;stroke-width:0.264999;stroke-linecap:round;stroke-opacity:0;paint-order:markers stroke fill"
       d="m 18.667373,8.034601 c 0.298302,-0.01161 0.410284,0.5011197 0.704214,0.5533107 0.360226,0.06396 0.902901,-0.6771947 1.043746,-0.3395307 0.147952,0.3547027 -0.640568,0.5306897 -1.024883,0.5281597 -0.258773,-0.0017 -0.426662,-0.371518 -0.685351,-0.364682 -0.25188,0.0067 -0.395746,0.383202 -0.647626,0.389833 -0.329925,0.0087 -1.002824,-0.161435 -0.87398,-0.4652847 0.116955,-0.275813 0.562456,0.3406967 0.855117,0.2766557 0.27821,-0.06088 0.344186,-0.5673877 0.628763,-0.5784617 z"
       sodipodi:nodetypes="sssssssss" />
    <g
       id="g3"
       transform="translate(0.20925237,-1.2464595)">
      <rect
         style="fill:#5c76cc;fill-opacity:1;stroke:#000000;stroke-width:0.529167;stroke-linecap:round;stroke-opacity:0;paint-order:markers stroke fill"
         id="rect3"
         width="18.410172"
         height="3.3701677"
         x="3.6216731"
         y="22.383951" />
      <text
         xml:space="preserve"
         transform="matrix(0.26458333,0,0,0.26458333,-0.1327062,15.199341)"
         id="text1"
         style="font-size:5.33333px;font-family:Arial;-inkscape-font-specification:'Arial, Normal';white-space:pre;shape-inside:url(#rect2);display:inline;fill:#3d3d3d;stroke:#000000;stroke-width:2;stroke-linecap:round;stroke-opacity:0;paint-order:markers stroke fill"><tspan
           x="14.671875"
           y="35.478084"
           id="tspan3"><tspan
             style="font-weight:bold;font-size:10.6667px;font-family:'Segoe Print';-inkscape-font-specification:'Segoe Print, Normal';fill:#082eaa"
             id="tspan1">2500 Arany</tspan></tspan></text>
    </g>
  </g>
  <g
     inkscape:groupmode="layer"
     id="layer3"
     inkscape:label="Réteg 3">
    <g
       id="g4246">
      <path
         id="path1499-3"
         style="fill:#d9fd05;stroke:#000000;stroke-width:0.264583"
         d="m 19.185714,5.1980684 c 0,0.2547351 0.56699,0.2958604 1.174854,0.2958604 0.607864,0 1.100635,-0.2065035 1.100635,-0.4612387 0,-0.2547351 -0.492771,-0.4612387 -1.100635,-0.4612387 -0.607864,0 -1.174854,0.3718819 -1.174854,0.626617 z"
         sodipodi:nodetypes="cscsc" />
      <ellipse
         style="fill:#000000;fill-opacity:1;stroke:#000000;stroke-width:0;stroke-linecap:butt;stroke-linejoin:miter;stroke-dasharray:none;stroke-dashoffset:0;stroke-opacity:1"
         id="path3950-6"
         cx="20.271749"
         cy="5.03265"
         rx="0.12791067"
         ry="0.29126638" />
    </g>
    <g
       id="g4250">
      <path
         id="path1499"
         style="fill:#d9fd05;stroke:#000000;stroke-width:0.264583"
         d="m 18.040905,5.2455728 c 0,0.2547351 -0.56699,0.2958604 -1.174854,0.2958604 -0.607864,0 -1.100635,-0.2065036 -1.100635,-0.4612387 0,-0.2547351 0.492771,-0.4612387 1.100635,-0.4612387 0.607864,0 1.174854,0.3718819 1.174854,0.626617 z"
         sodipodi:nodetypes="cscsc" />
      <ellipse
         style="fill:#000000;fill-opacity:1;stroke:#000000;stroke-width:0;stroke-linecap:butt;stroke-linejoin:miter;stroke-dasharray:none;stroke-dashoffset:0;stroke-opacity:1"
         id="path3950"
         cx="16.927013"
         cy="5.102397"
         rx="0.12791067"
         ry="0.29126638" />
    </g>
  </g>
</svg>
